HIERARCHY
ROOT Hips
{
  OFFSET 40.9192 92.6879 18.85
  CHANNELS 6 Xposition Yposition Zposition Zrotation Xrotation Yrotation
  JOINT LeftUpLeg
  {
    OFFSET 8.64259 1.95398 -2.38835
    CHANNELS 3 Zrotation Xrotation Yrotation
    JOINT LeftLeg
    {
      OFFSET 43.7702 0 0
      CHANNELS 3 Zrotation Xrotation Yrotation
      JOINT LeftFoot
      {
        OFFSET 40.6238 0 0
        CHANNELS 3 Zrotation Xrotation Yrotation
        JOINT LeftToeBase
        {
          OFFSET 12.7242 0 0
          CHANNELS 3 Zrotation Xrotation Yrotation
          End Site
          {
            OFFSET 0 0 0
          }
        }
      }
    }
  }
  JOINT RightUpLeg
  {
    OFFSET -8.2249 1.95398 -2.59336
    CHANNELS 3 Zrotation Xrotation Yrotation
    JOINT RightLeg
    {
      OFFSET 43.5653 0 0
      CHANNELS 3 Zrotation Xrotation Yrotation
      JOINT RightFoot
      {
        OFFSET 40.6238 0 0
        CHANNELS 3 Zrotation Xrotation Yrotation
        JOINT RightToeBase
        {
          OFFSET 12.7242 0 0
          CHANNELS 3 Zrotation Xrotation Yrotation
          End Site
          {
            OFFSET 0 0 0
          }
        }
      }
    }
  }
  JOINT Spine
  {
    OFFSET 0.165834 0.87714 6.61349
    CHANNELS 3 Zrotation Xrotation Yrotation
    JOINT Spine1
    {
      OFFSET 7.38963 1.71661e-005 0
      CHANNELS 3 Zrotation Xrotation Yrotation
      JOINT Spine2
      {
        OFFSET 11.9445 1.14441e-005 0
        CHANNELS 3 Zrotation Xrotation Yrotation
        JOINT Spine3
        {
          OFFSET 14.7254 4.19617e-005 0
          CHANNELS 3 Zrotation Xrotation Yrotation
          JOINT Spine4
          {
            OFFSET 10.9679 0 0
            CHANNELS 3 Zrotation Xrotation Yrotation
            JOINT RightShoulder
            {
              OFFSET 2.46616 -1.6653 3.69651
              CHANNELS 3 Zrotation Xrotation Yrotation
              JOINT RightArm
              {
                OFFSET 13.0012 0 0
                CHANNELS 3 Zrotation Xrotation Yrotation
                JOINT RightForeArm
                {
                  OFFSET 28.7848 1.52588e-005 0
                  CHANNELS 3 Zrotation Xrotation Yrotation
                  JOINT RightHand
                  {
                    OFFSET 26.5688 1.52588e-005 0
                    CHANNELS 3 Zrotation Xrotation Yrotation
                    End Site
                    {
                      OFFSET 0 0 0
                    }
                  }
                }
              }
            }
            JOINT LeftShoulder
            {
              OFFSET 2.38034 -1.29275 -3.7523
              CHANNELS 3 Zrotation Xrotation Yrotation
              JOINT LeftArm
              {
                OFFSET 16.3182 6.10351e-005 0
                CHANNELS 3 Zrotation Xrotation Yrotation
                JOINT LeftForeArm
                {
                  OFFSET 27.0901 0 0
                  CHANNELS 3 Zrotation Xrotation Yrotation
                  JOINT LeftHand
                  {
                    OFFSET 24.5451 1.52588e-005 0
                    CHANNELS 3 Zrotation Xrotation Yrotation
                    End Site
                    {
                      OFFSET 0 0 0
                    }
                  }
                }
              }
            }
            JOINT Neck
            {
              OFFSET 5.0226 -0.0266342 0
              CHANNELS 3 Zrotation Xrotation Yrotation
              JOINT Head
              {
                OFFSET 6.69363 2.86102e-005 0
                CHANNELS 3 Zrotation Xrotation Yrotation
                End Site
                {
                  OFFSET 0 0 0
                }
              }
            }
          }
        }
      }
    }
  }
}
MOTION
Frames:	17
Frame Time:	0.0416667
-47.1288 94.2762 -45.2796 91.8052 -39.0715 88.7812 -171.099 -6.58821 90.9057 -26.3453 25.4329 -1.85456 66.2206 5.92772 3.13602 43.8778 12.4307 5.38126 175.376 23.4992 88.0392 -5.54648 -6.71993 -1.24917 65.6685 -2.87004 -1.55702 49.9746 0.027096 -8.52475 -0.949447 7.757 -89.7833 11.3656 -1.78814 0.611115 -0.304252 -1.75949 0.689234 -22.8492 -1.88909 0.0452727 -2.8366 -1.8891 0.0452662 94.0054 -51.3227 -94.4526 28.777 -3.58847 22.3346 -13.4501 -37.2262 -35.8256 1.38381 -0.634319 6.24593 -93.5726 -44.2883 71.7663 -14.8954 9.7481 -9.16514 10.3052 5.92096 -55.5243 15.3926 0.85342 1.66458 8.78461 1.46496 -0.827297 -3.53829 1.62728 2.65538 
-37.9248 92.2486 -34.4373 93.8246 -38.7373 92.3125 -170.763 -8.57559 95.7299 -37.9332 27.3525 1.50183 55.0709 -2.49521 -1.21003 47.8919 16.4389 8.96576 176.421 24.868 90.7973 -22.159 -4.07475 -0.94102 60.0871 -1.46211 -0.822908 43.7 0.0391124 -9.36249 -1.10193 7.8296 -90.018 11.2203 -2.20147 0.180622 -0.448773 -2.19138 0.277381 -22.9987 -2.1539 -0.489678 -2.98607 -2.15391 -0.489674 94.1544 -51.2225 -94.2419 28.3227 -2.32368 23.926 -13.3305 -37.539 -33.974 1.50145 -0.629312 5.70357 -93.5561 -45.3354 72.1058 -14.7579 6.8184 -6.81151 7.46912 2.57409 -57.2551 13.9386 0.719578 1.24141 7.54703 1.96929 -0.99817 -3.37089 2.16278 3.57553 
-29.0403 91.8451 -24.6977 96.3408 -40.4891 97.2007 -170.498 0.651325 99.9603 -56.7903 19.3753 1.67776 38.7447 -12.6196 -6.5927 37.0816 6.80004 13.6428 177.268 23.3133 95.4379 -38.5667 -2.26528 -0.723696 66.5714 -3.379 -1.8139 31.4277 0.314483 -3.61931 -0.779559 7.93074 -90.3044 11.0075 -1.69267 -0.441469 -0.662407 -1.71047 -0.366529 -23.2039 -1.48175 -0.929868 -3.19125 -1.48175 -0.92988 92.7444 -48.6691 -96.8584 31.3071 -3.17497 20.5538 -11.9002 -33.7531 -35.1723 0.616456 -0.625755 6.6856 -95.0706 -48.133 70.6444 -16.5631 8.57891 -3.08418 6.76765 4.42556 -51.1522 17.3489 1.15789 2.82203 6.66799 1.82627 -0.751978 -4.04787 1.95157 3.31525 
-21.0602 94.3801 -15.6445 97.0055 -43.0793 95.9071 -169.465 12.6985 95.5558 -61.6792 14.3234 -0.679308 48.9378 -5.62582 -1.09948 41.6735 11.1267 11.7406 178.427 12.5046 95.1117 -34.2038 -3.04431 -2.4741 71.4836 -5.20425 -2.65262 30.1936 0.232693 -3.12074 -0.231584 7.91321 -89.9565 11.0496 -0.44086 0.12815 -0.621333 -0.434792 0.147424 -23.1572 -0.458993 -0.010277 -3.14452 -0.458995 -0.0102737 92.5254 -47.0973 -97.4992 32.904 -6.62479 12.4488 -10.8494 -28.4551 -41.6241 -4.93965 -0.808555 4.49677 -95.5447 -48.8513 70.1524 -21.7485 11.5524 -0.0881708 5.75824 9.9891 -38.8505 17.805 1.55171 4.85971 5.40683 0.837043 -0.77939 -3.8832 0.971876 2.47163 
-13.0206 96.3207 -7.07253 95.8638 -47.5049 92.9692 -168.002 17.8183 90.8593 -39.878 7.4471 -4.23895 57.8656 0.39048 0.857391 44.6137 14.0201 12.3787 177.044 2.91708 92.5395 -27.8475 -7.89205 -3.42799 71.4867 -5.04326 -2.54256 33.3503 0.280273 -2.11755 0.390589 7.73963 -89.6028 11.3913 0.962487 0.694206 -0.279446 0.992116 0.651159 -22.8149 0.70935 0.951369 -2.8022 0.709363 0.951369 92.4669 -45.2772 -97.9649 31.0483 -10.1034 3.52222 -12.0101 -24.2668 -50.7236 -8.81918 -0.855511 2.85342 -95.5652 -49.1524 70.2153 -27.6376 13.3728 6.84709 2.69195 11.976 -29.4199 14.7837 1.35999 5.224 5.62291 0.506008 -0.277599 -3.71221 0.559712 1.54781 
-4.12783 95.7339 0.481474 92.8194 -52.8048 91.7274 -170.7 18.7646 91.4596 -7.50084 -0.713195 -3.99319 62.3605 2.8892 -1.76103 44.3925 14.4583 16.8137 175.422 -3.07827 91.3134 -25.4276 -14.1142 -3.61215 72.3762 -5.80002 -2.87932 37.0154 0.383906 -3.05126 1.03492 7.59575 -89.6819 11.6799 2.20775 0.403201 0.0108215 2.22335 0.305585 -22.5366 1.98445 1.04831 -2.52397 1.98446 1.04831 92.5149 -41.5156 -98.7005 28.1831 -11.2461 -7.08267 -15.5933 -21.751 -59.2788 -10.2545 -0.713737 0.788651 -95.5565 -50.4443 70.6222 -31.5746 13.1758 14.0408 2.55912 14.9778 -25.7684 11.7037 1.04521 4.81954 8.66273 0.862698 0.828348 -5.34871 0.689104 1.38904 
5.39111 93.7468 8.55877 92.7671 -57.0444 92.6441 -171.779 22.8763 93.1401 -4.27525 5.03856 -2.7767 63.0556 2.53183 -1.01069 46.4142 16.4824 16.6082 175.52 -6.46278 88.9156 -32.3879 -18.7536 -6.42265 70.1121 -5.16488 -2.78915 47.1061 0.484615 -4.67897 1.4754 7.65485 -89.6986 11.5626 3.0761 0.28452 -0.10471 3.08563 0.148722 -22.6655 2.84829 1.1966 -2.65287 2.8483 1.1966 92.1328 -40.5371 -99.5829 24.9826 -9.91466 -13.8347 -17.7598 -19.8914 -64.8953 -11.444 -0.746027 0.849627 -93.7185 -50.2793 73.2749 -34.7096 12.1472 18.6541 2.55389 16.4961 -23.5262 10.3999 1.02017 5.53631 10.3008 1.03572 0.0624662 -5.8381 0.986573 2.31532 
15.9627 92.4342 18.1071 93.9971 -55.6411 89.4291 -170.01 24.817 88.6835 -21.0546 12.2835 -5.09612 57.1023 -1.04779 2.361 40.5017 9.69147 6.81455 176.831 -2.33617 84.6213 -50.1986 -14.4595 -8.52513 48.9967 2.41552 2.47766 44.033 0.702087 1.37719 1.32931 7.66709 -89.171 11.5267 3.03256 1.34052 -0.141204 3.0886 1.20565 -22.6919 2.48947 2.19022 -2.67927 2.48945 2.19021 92.0738 -43.6109 -98.9763 24.715 -9.42999 -9.16036 -17.0128 -17.5341 -66.3825 -13.9888 -0.842999 1.08471 -94.2288 -49.3295 72.2525 -35.1209 12.409 19.5025 2.03173 19.5715 -20.6861 8.04741 0.828659 5.67689 8.56891 0.039137 -1.40183 -5.59945 0.28509 1.96636 
25.7569 93.1171 26.4774 95.3214 -53.2935 89.0859 -170.153 20.1929 86.0088 -30.0765 13.8357 -5.75084 63.0556 3.75123 5.27601 31.6143 2.28289 -0.775986 -179.728 10.7923 84.8476 -69.2953 -1.27444 -6.04556 38.9178 3.67079 3.86093 29.3361 0.343073 -5.29689 0.854122 7.77977 -89.0895 11.2977 2.12397 1.60163 -0.37238 2.19239 1.50658 -22.9079 1.54453 2.16584 -2.89526 1.54453 2.16583 92.7894 -45.118 -97.4705 27.5902 -10.5163 -2.82898 -14.6058 -20.6775 -59.8337 -13.2162 -0.829978 1.15882 -95.4505 -48.3159 70.127 -33.873 12.0679 15.5798 3.38491 17.6114 -23.8075 9.03247 0.889766 5.42338 8.31205 0.495824 -0.899549 -4.79653 0.655475 2.06547 
35.2629 95.7166 34.5061 95.3745 -49.2927 91.3207 -172.023 10.2681 86.9968 -26.1586 14.9944 -3.90817 65.217 5.4632 4.89994 31.9113 2.44623 0.4236 178.541 20.5479 89.1066 -66.2749 0.870029 -3.46442 53.9947 -0.59473 -0.26353 34.5609 0.431722 -8.71396 0.23494 7.78069 -89.4983 11.3076 0.701301 0.930086 -0.363451 0.741574 0.898312 -22.8964 0.389374 1.09785 -2.88375 0.389365 1.09784 92.9477 -47.2396 -96.7983 29.4529 -10.7817 5.25169 -12.7091 -26.8546 -50.1282 -11.2378 -0.868917 1.96914 -95.8057 -47.7007 69.3989 -28.7136 14.4327 8.5412 3.88372 12.9769 -32.0649 13.1258 1.15636 4.76704 6.21098 1.28334 -0.0358263 -4.17773 1.2854 2.38991 
43.858 96.5881 42.7468 93.4548 -44.885 90.2854 -172.177 1.6996 87.2411 -22.6876 16.848 -3.32692 65.6004 5.08579 3.44707 35.5329 5.30198 3.27524 175.636 22.1433 90.4568 -37.4755 4.49636 -0.707923 63.0891 -3.02367 -1.77376 37.8446 0.336172 -7.04292 -0.358408 7.71355 -89.6656 11.4479 -0.556894 0.722058 -0.223117 -0.524581 0.745858 -22.7583 -0.748153 0.521315 -2.74565 -0.748155 0.521308 93.1127 -49.329 -96.1611 29.9055 -8.01375 13.307 -11.8444 -33.2904 -41.4712 -4.83694 -0.850662 4.38234 -95.1125 -45.7023 69.8115 -22.4739 14.7465 0.41713 5.77048 8.93671 -42.8248 15.7834 1.24374 3.98171 5.21984 1.46187 -0.551566 -3.28317 1.57223 3.08588 
52.3872 95.0689 51.831 92.3333 -41.0144 88.517 -171.687 -3.71774 88.4398 -24.0325 21.3718 -2.76719 67.0724 6.34502 3.83027 40.5041 9.45088 3.97447 174.97 21.8825 89.4547 -7.87695 -2.40688 -0.0692228 66.107 -3.00355 -1.65113 44.9185 0.348089 -6.19887 -0.829356 7.7494 -89.645 11.3807 -1.48458 0.856431 -0.289714 -1.44545 0.920939 -22.831 -1.67331 0.370574 -2.81837 -1.67333 0.370563 93.9746 -51.0908 -94.5351 28.868 -4.91012 20.3059 -12.8848 -36.6548 -37.4796 -1.32239 -0.76804 5.66837 -94.2388 -43.4307 70.4431 -16.6456 12.1251 -8.03993 8.39942 7.15951 -50.526 16.1025 1.10244 2.94842 6.28405 1.80967 -2.10262 -2.3305 2.22317 3.8974 
61.4128 92.587 61.7855 93.4538 -39.7087 89.1554 -171.365 -8.38957 91.6918 -31.7693 27.266 -0.698692 63.0886 3.54221 3.27385 49.0043 16.6451 4.64825 176.054 21.8767 89.9562 -8.17464 -4.13046 -0.914671 64.7957 -3.5405 -2.04184 45.676 0.366595 -5.73176 -1.07498 7.82316 -89.6948 11.2356 -1.99735 0.804752 -0.434074 -1.95998 0.891883 -22.9814 -2.14682 0.167 -2.96871 -2.14682 0.167 94.4361 -51.4962 -93.772 27.7296 -2.80311 24.4128 -12.2815 -36.4605 -34.8097 -0.11937 -0.703866 6.30951 -93.8172 -43.3187 71.0773 -14.428 7.85564 -10.2254 9.65139 5.22547 -55.6723 17.2516 1.14143 2.74451 7.1777 2.8478 -1.73082 -2.65266 3.18156 3.8955 
71.3662 91.4249 72.0556 95.9011 -40.5623 96.1392 -169.892 -6.01033 98.9197 -46.1162 23.288 1.65685 44.6864 -9.30984 -5.00706 46.2563 15.5575 12.3842 175.87 26.0999 95.1756 -34.3888 -0.689898 0.849161 62.6221 -1.88327 -1.00757 36.5729 0.357746 -4.20774 -0.971861 7.89534 -90.3461 11.0761 -2.09494 -0.485828 -0.593263 -2.1143 -0.393119 -23.1384 -1.85208 -1.09317 -3.1258 -1.85207 -1.09316 93.3258 -50.6742 -95.596 27.2711 -2.38555 23.2041 -10.8989 -35.2408 -33.3848 0.903914 -0.618506 6.68195 -94.409 -46.7254 71.2177 -14.942 6.81502 -5.93838 7.63193 3.46059 -55.7906 18.6542 1.12549 2.17191 6.55554 3.26489 0.264016 -3.74757 3.21187 4.02634 
79.4429 92.4357 81.1298 97.6906 -42.5853 97.7356 -170.52 6.56719 98.378 -64.262 15.6816 0.880494 44.4614 -8.57383 -2.68416 35.3497 5.06855 13.882 176.202 18.528 96.5476 -38.3094 -0.405574 0.674859 71.5456 -5.01146 -2.56992 30.031 0.0894061 -0.398797 -0.566274 7.98951 -90.2864 10.8926 -1.2598 -0.450589 -0.777822 -1.27842 -0.394706 -23.3161 -1.06615 -0.808411 -3.30346 -1.06614 -0.808413 92.2108 -48.6918 -97.683 30.2488 -4.31371 16.3317 -10.4143 -30.1164 -37.538 -2.1991 -0.732343 5.72951 -96.0592 -48.3557 69.2271 -18.1533 9.75405 -1.97405 5.49098 5.14483 -46.8669 17.7792 1.28424 3.3632 5.79355 2.16994 0.368269 -3.14236 2.13227 3.37212 
87.4595 95.378 90.0675 97.0597 -46.0547 95.2053 -169.425 16.647 93.015 -57.1496 12.6614 -1.64643 53.9717 -2.12222 -0.324474 40.5982 10.2078 13.102 177.366 8.03998 95.0909 -31.2765 -3.30276 -1.46266 71.3129 -4.92906 -2.51052 30.6637 0.131034 -0.847459 -0.010594 7.86186 -89.9318 11.1517 0.0106196 0.133967 -0.519275 0.0164899 0.133358 -23.0544 -0.0301141 0.130973 -3.04176 -0.0301515 0.130957 92.481 -47.0205 -97.5848 30.6975 -8.34833 6.89224 -11.5131 -25.7695 -46.8765 -6.92765 -0.812541 3.31767 -96.7348 -49.0169 68.4399 -23.6865 13.6725 2.16576 2.5708 9.96018 -32.7702 16.0942 1.34925 4.45527 4.04197 1.19627 0.42186 -2.11295 1.1676 2.07377 
95.5266 96.3529 98.244 94.5161 -50.9514 92.2158 -169.74 18.9908 90.717 -26.7036 8.0268 -3.6702 59.3603 1.23331 0.75359 44.4756 14.2764 15.0347 176.435 0.938361 92.7393 -27.4665 -9.17252 -2.70984 70.5587 -4.68157 -2.38611 34.7799 0.316708 -1.40483 0.567578 7.68903 -89.6832 11.4933 1.27725 0.500766 -0.177131 1.29809 0.444047 -22.7153 1.0677 0.861516 -2.70264 1.06772 0.861514 92.1676 -44.2943 -98.6658 29.3467 -11.0778 -3.10086 -14.2858 -21.9769 -56.3309 -9.9192 -0.71611 0.936848 -96.8198 -49.7946 68.5672 -29.0627 14.1007 9.13856 2.49395 16.491 -25.4563 12.2174 1.2292 5.91206 5.04501 1.14513 0.45213 -2.32072 1.08539 1.17191 
